Motion_pl07
version=1
nRows=9
nColumns=43
inDegrees=yes
endheader
time	pelvis_tilt	pelvis_list	pelvis_rotation	pelvis_tx	pelvis_ty	pelvis_tz	hip_flexion_r	hip_adduction_r	hip_rotation_r	knee_angle_r	ankle_angle_r	subtalar_angle_r	mtp_angle_r	hip_flexion_l	hip_adduction_l	hip_rotation_l	knee_angle_l	ankle_angle_l	subtalar_angle_l	mtp_angle_l	lumbar_extension	lumbar_bending	lumbar_rotation	neck_flexion	neck_lateral_bending	neck_rotation	arm_flex_r	arm_add_r	arm_rot_r	elbow_flex_r	pro_sup_r	wrist_flex_r	wrist_dev_r	hand_finger_flex_r	arm_flex_l	arm_add_l	arm_rot_l	elbow_flex_l	pro_sup_l	wrist_flex_l	wrist_dev_l	hand_finger_flex_l
      2.36500000	      1.03529282	     18.17461867	     90.50219750	     -0.03164296	      0.97209038	      0.16964395	    -17.01401688	     -1.27658357	    -13.43281406	    -17.47826943	     -9.23524355	      6.78900725	     27.56158343	    -18.06458840	     -2.99562305	    -14.24583243	    -14.92499781	     -4.74797496	      1.44893456	     31.76114290	    -33.48478820	      0.15382976	      1.51392612	    -33.65704616	      1.61585986	     -1.05586889	     60.66815769	    -22.63486992	     18.37177814	     79.93241543	     92.20149245	    -22.54112553	     -0.76838017	     53.80073777	     58.64392139	    -27.42447814	     11.93569529	     87.89845738	    -88.08279780	    -22.42922580	    -24.99999983	    -90.00021046
      2.36750000	      1.05618599	     18.21976135	     90.47160309	     -0.03161001	      0.97219588	      0.16925559	    -17.21477309	     -1.23820624	    -13.44448476	    -17.21779964	     -9.27946097	      6.75211844	     27.55513345	    -18.23401649	     -2.98929238	    -14.28409559	    -14.72656446	     -4.80827034	      1.37565309	     31.77204804	    -33.52109220	      0.15173603	      1.54197985	    -33.59137303	      1.59585505	     -1.03966952	     60.09051155	    -22.52756318	     18.10399216	     80.13643418	     92.24904761	    -22.59948135	     -0.81478779	     53.80247026	     58.13016916	    -27.30448036	     11.70138215	     87.95212645	    -88.10642212	    -22.31706845	    -24.99999983	    -90.00021046
      2.37000000	      1.06537863	     18.25598720	     90.46037564	     -0.03169430	      0.97220929	      0.16943051	    -17.23917466	     -1.24414660	    -13.43551068	    -17.23545479	     -9.29823323	      6.74976061	     27.55419820	    -18.25350007	     -2.99150251	    -14.27741202	    -14.74803729	     -4.82714743	      1.36993351	     31.77402510	    -33.58730567	      0.15799912	      1.53702324	    -33.49585682	      1.61110394	     -1.04115725	     59.82598539	    -22.49007124	     18.18018357	     80.08810516	     92.26210548	    -22.58663018	     -0.79857942	     53.80847102	     57.85968078	    -27.28407851	     11.77355686	     87.84932201	    -88.10512573	    -22.31984537	    -24.99999983	    -90.00021046
      2.37250000	      1.08939038	     18.31268733	     90.42758594	     -0.03164934	      0.97232374	      0.16903565	    -17.46046556	     -1.19384960	    -13.46337966	    -16.95169916	     -9.34917863	      6.73634795	     27.55231681	    -18.44429666	     -2.98210921	    -14.33340209	    -14.53821277	     -4.87862219	      1.30859884	     31.78765833	    -33.63647035	      0.15816971	      1.56591481	    -33.44544035	      1.58972911	     -1.01857345	     59.24240200	    -22.36435043	     17.91742137	     80.28337431	     92.32486930	    -22.66041571	     -0.84010119	     53.80616028	     57.32484404	    -27.15431676	     11.53532401	     87.90535181	    -88.12463192	    -22.21286946	    -24.99999983	    -90.00021046
      2.37500000	      1.09762109	     18.34993754	     90.41796086	     -0.03173755	      0.97233461	      0.16921453	    -17.48504994	     -1.19909686	    -13.45519967	    -16.97431485	     -9.36825280	      6.73727171	     27.55224727	    -18.46531936	     -2.98230170	    -14.32709676	    -14.56389216	     -4.89670403	      1.30656092	     31.78987394	    -33.70715871	      0.16570903	      1.56117320	    -33.34522977	      1.60507918	     -1.02028042	     58.97004483	    -22.33319285	     18.00134986	     80.22287409	     92.34003484	    -22.64802444	     -0.82119837	     53.81221028	     57.04334795	    -27.14120200	     11.61173128	     87.79133221	    -88.12110517	    -22.21814523	    -24.99999983	    -90.00021046
      2.37750000	      1.12029400	     18.41667251	     90.38579614	     -0.03174743	      0.97246711	      0.16879199	    -17.71832524	     -1.15811000	    -13.50079411	    -16.69405173	     -9.41624456	      6.74552054	     27.55771022	    -18.67321957	     -2.96876998	    -14.39314239	    -14.34735744	     -4.93766730	      1.27203584	     31.80665748	    -33.76139865	      0.17089444	      1.58326800	    -33.30431246	      1.58039003	     -1.00456613	     58.38809715	    -22.20758090	     17.77368224	     80.38671847	     92.42629321	    -22.72998072	     -0.85735851	     53.80782911	     56.49600141	    -27.00643688	     11.37649962	     87.82863949	    -88.12189425	    -22.11613602	    -24.99999983	    -90.00021046
      2.38000000	      1.12647239	     18.45565150	     90.37836706	     -0.03184277	      0.97244059	      0.16896951	    -17.74291014	     -1.16515465	    -13.49301135	    -16.72228304	     -9.43438755	      6.74911963	     27.55873097	    -18.69521862	     -2.96980865	    -14.38602808	    -14.37673206	     -4.95478603	      1.27439176	     31.80915945	    -33.83440961	      0.17896245	      1.57858121	    -33.19927894	      1.59530761	     -1.00745189	     58.10989533	    -22.18177702	     17.86348492	     80.31612270	     92.44362973	    -22.71811760	     -0.83702646	     53.81367681	     56.19961558	    -26.99681160	     11.45838072	     87.70396375	    -88.11425534	    -22.12333700	    -24.99999983	    -90.00021046
      2.38250000	      1.14512368	     18.52837333	     90.35275434	     -0.03190346	      0.97254110	      0.16854243	    -17.97813766	     -1.13316978	    -13.55477512	    -16.45706796	     -9.46802695	      6.77634321	     27.57355562	    -18.91529451	     -2.95279061	    -14.45118306	    -14.14997933	     -4.98106503	      1.27614083	     31.83029278	    -33.88955453	      0.18879384	      1.59393895	    -33.16856138	      1.56438167	     -1.00553973	     57.53150295	    -22.06149678	     17.66602115	     80.44587402	     92.55548570	    -22.80872949	     -0.87169658	     53.80345404	     55.64014335	    -26.84634800	     11.21721185	     87.71221128	    -88.07567140	    -22.01776062	    -24.99999983	    -90.00021046
      2.38500000	      1.15056166	     18.56911167	     90.34708719	     -0.03201709	      0.97252405	      0.16871596	    -18.00226395	     -1.14262722	    -13.54711958	    -16.49020302	     -9.48494272	      6.78230922	     27.57569895	    -18.93791488	     -2.95494655	    -14.44330449	    -14.18287238	     -4.99744388	      1.28267171	     31.83326524	    -33.96570679	      0.19867523	      1.58933054	    -33.05935203	      1.57854310	     -1.00959537	     57.24207601	    -22.04117227	     17.76036550	     80.36317907	     92.57570039	    -22.79783018	     -0.84972487	     53.80845362	     55.33103401	    -26.83793104	     11.30268971	     87.57961084	    -88.06223870	    -22.02575914	    -24.99999983	    -90.00021046
